<svg width="1200" height="960" viewBox="0 0 1200 960" fill="none" xmlns="http://www.w3.org/2000/svg">
  <rect width="1200" height="960" rx="48" fill="#E9F2EA"/>
  <rect x="140" y="160" width="920" height="640" rx="44" fill="#FFFDF8"/>
  <rect x="220" y="240" width="180" height="420" rx="24" fill="#C8D7BD"/>
  <rect x="430" y="240" width="180" height="420" rx="24" fill="#C8D7BD"/>
  <rect x="640" y="240" width="180" height="420" rx="24" fill="#C8D7BD"/>
  <rect x="850" y="240" width="120" height="420" rx="24" fill="#C8D7BD"/>
  <rect x="248" y="282" width="124" height="28" rx="12" fill="#7AA37A"/>
  <rect x="458" y="322" width="124" height="28" rx="12" fill="#F0B36B"/>
  <rect x="668" y="282" width="124" height="28" rx="12" fill="#7AA37A"/>
  <rect x="878" y="322" width="64" height="28" rx="12" fill="#F0B36B"/>
  <circle cx="610" cy="668" r="48" fill="#FFD8CA"/>
  <rect x="560" y="714" width="100" height="122" rx="48" fill="#43634A"/>
  <path d="M644 664C688 644 734 638 770 644" stroke="#FFD8CA" stroke-width="16" stroke-linecap="round"/>
  <path d="M520 622C538 582 570 560 610 560C650 560 682 582 700 622" stroke="#314966" stroke-width="18" stroke-linecap="round"/>
</svg>
